:SAMPLES-PER-SECOND 30
:FULLY-SPECIFIED
:DEGREES
131
root  14.748734 36.59377811 2.785133377 -17.07499695 -69.31600189 13.92900085
lowerback  14.63189983 1.491719961 -1.209169984
upperback  6.771180153 1.590270042 1.975999951
thorax  -1.142989993 0.6285629869 2.50583005
lowerneck  0.7892580032 9.784460068 1.93295002
upperneck  13.22809982 12.98859978 -0.6283349991
head  4.419980049 6.402910233 -0.06194239855
lclavicle  0 -9.442270133e-015 7.951389973e-016
lhumerus  0.4681459963 -7.904200077 87.06359863
lradius  2.503541104e-031 -2.490206011e-031 135.1529999
lwrist  -7.062250077e-031 -0 17.88509941
lhand  -1.496451383e-031 -27.76390076 20.11240005
lfingers  90 7.125020027 -90
lthumb  89.89689403 5.08795885 91.16245106
rclavicle  0 -9.442270133e-015 7.951389973e-016
rhumerus  19.64299965 19.3029995 -77.3167038
rradius  -1.673033549e-031 3.10963065e-031 118.2809982
rwrist  7.062250077e-031 1.765562519e-031 -51.11000061
rhand  -7.920061211e-032 -33.2840004 9.303460121
rfingers  -90 -7.125020027 -90
rthumb  -92.93752616 -24.25625642 -97.11982154
rfemur  -16.64119911 18.23719978 -3.991489887
rtibia  -0 0 61.62419891
rfoot  -0 -23.39229965 -11.79230022
rtoes  5.373923086 19.29304026 -105.8922705
lfemur  -24.18889999 -1.713359952 -5.178229809
ltibia  -0 0 66.18399811
lfoot  5.096206001e-032 -12.99730015 -0.7295699716
ltoes  -4.250644065 -19.5611806 -102.515957
132
root  14.68582153 36.41288938 2.802133372 -15.66900635 -69.68099976 12.79499817
lowerback  14.2020998 1.392729998 -1.147510052
upperback  6.520860195 1.491999984 2.17098999
thorax  -1.175879955 0.5867670178 2.693840027
lowerneck  0.8408560157 9.881329536 1.701689959
upperneck  13.05379963 13.15919971 -0.9065390229
head  4.354330063 6.467619896 -0.1170120016
lclavicle  0 -9.442270133e-015 7.951389973e-016
lhumerus  -1.062469959 -7.753540039 88.2410965
lradius  2.507406422e-031 -2.486313953e-031 135.2420044
lwrist  -1.412450015e-030 -8.827812596e-032 17.40589905
lhand  -1.496451383e-031 -27.76390076 20.11240005
lfingers  90 7.125020027 -90
lthumb  89.89689403 5.08795885 91.16245106
rclavicle  0 -9.442270133e-015 7.951389973e-016
rhumerus  18.04249954 20.21570015 -77.35050201
rradius  -1.710413918e-031 3.089227778e-031 118.9720001
rwrist  1.412450015e-030 8.827812596e-031 -50.82229996
rhand  -7.920061211e-032 -33.2840004 9.303460121
rfingers  -90 -7.125020027 -90
rthumb  -92.93752616 -24.25625642 -97.11982154
rfemur  -16.43910027 18.16659927 -3.245790005
rtibia  -0 0 61.19390106
rfoot  -0 -26.66939926 -10.70930004
rtoes  5.373923086 19.29304026 -105.8922705
lfemur  -24.1439991 -1.845170021 -4.495530128
ltibia  -0 0 66.35559845
lfoot  5.707777012e-032 -14.84039974 -0.8938429952
ltoes  -4.250644065 -19.5611806 -102.515957
133
root  14.6389338 36.26310994 2.816266713 -14.13000488 -70.07900238 11.55200195
lowerback  13.88899994 1.400339961 -0.9091730118
upperback  6.235779762 1.554640055 2.296999931
thorax  -1.309299946 0.6307169795 2.682889938
lowerneck  1.08889997 9.872719765 1.817119956
upperneck  12.65219975 13.21140003 -1.510130048
head  4.222849846 6.482049942 -0.3530220091
lclavicle  0 -9.442270133e-015 7.951389973e-016
lhumerus  -2.628710032 -7.875520229 89.54389954
lradius  2.516329161e-031 -2.477283107e-031 135.447998
lwrist  -1.412450015e-030 -1.765562519e-031 16.99480057
lhand  -1.496451383e-031 -27.76390076 20.11240005
lfingers  90 7.125020027 -90
lthumb  89.89689403 5.08795885 91.16245106
rclavicle  0 -9.442270133e-015 7.951389973e-016
rhumerus  16.57799911 20.77350044 -77.92780304
rradius  -1.747599035e-031 3.0683451e-031 119.6640015
rwrist  1.412450015e-030 5.296687558e-031 -50.30899811
rhand  -7.920061211e-032 -33.2840004 9.303460121
rfingers  -90 -7.125020027 -90
rthumb  -92.93752616 -24.25625642 -97.11982154
rfemur  -16.60950089 18.22550011 -2.630820036
rtibia  -0 0 61.00030136
rfoot  -0 -27.7845993 -11.85410023
rtoes  5.373923086 19.29304026 -105.8922705
lfemur  -24.12420082 -2.138319969 -3.719609976
ltibia  -0 0 66.26830292
lfoot  5.749921013e-032 -16.35040092 -1.340330005
ltoes  -4.250644065 -19.5611806 -102.515957
134
root  14.60666656 36.14355673 2.828800021 -12.26100159 -70.38700104 9.957992554
lowerback  13.63850021 1.421440005 -0.3206099868
upperback  5.983650208 1.672209978 2.329289913
thorax  -1.431040049 0.7065119743 2.367269993
lowerneck  1.243880033 9.818719864 1.936139941
upperneck  12.30780029 13.18340015 -1.961169958
head  4.116539955 6.462860107 -0.5361040235
lclavicle  0 -9.442270133e-015 7.951389973e-016
lhumerus  -4.104670048 -8.186389923 90.77799988
lradius  2.525434968e-031 -2.467999647e-031 135.6589966
lwrist  -7.062250077e-031 -0 16.51709938
lhand  -1.496451383e-031 -27.76390076 20.11240005
lfingers  90 7.125020027 -90
lthumb  89.89689403 5.08795885 91.16245106
rclavicle  0 -9.442270133e-015 7.951389973e-016
rhumerus  15.10000038 21.1427002 -78.55090332
rradius  -1.785379987e-031 3.046516427e-031 120.3720016
rwrist  1.412450015e-030 5.296687558e-031 -49.65280151
rhand  -7.920061211e-032 -33.2840004 9.303460121
rfingers  -90 -7.125020027 -90
rthumb  -92.93752616 -24.25625642 -97.11982154
rfemur  -16.94709969 18.33410072 -2.030869961
rtibia  -0 0 61.07369995
rfoot  -0 -27.94659996 -13.06919956
rtoes  5.373923086 19.29304026 -105.8922705
lfemur  -24.17029953 -2.571449995 -2.83010006
ltibia  -0 0 66.10030365
lfoot  4.624282833e-032 -17.34900093 -1.814129949
ltoes  -4.250644065 -19.5611806 -102.515957
135
root  14.58359966 36.03866757 2.82691107 -10.76400757 -70.56900024 8.606994629
lowerback  13.52110004 1.406039953 0.2378900051
upperback  5.865540028 1.724560022 2.204930067
thorax  -1.474290013 0.745742023 1.914829969
lowerneck  1.118460059 9.831950188 2.106440067
upperneck  12.0710001 13.21879959 -2.165240049
head  4.087250233 6.483389854 -0.6262859702
lclavicle  0 -9.442270133e-015 7.951389973e-016
lhumerus  -5.448919773 -8.373809814 91.63770294
lradius  2.536994071e-031 -2.45611586e-031 135.9279938
lwrist  -7.062250077e-031 -1.765562519e-031 16.17440033
lhand  -1.496451383e-031 -27.76390076 20.11240005
lfingers  90 7.125020027 -90
lthumb  89.89689403 5.08795885 91.16245106
rclavicle  0 -9.442270133e-015 7.951389973e-016
rhumerus  13.80630016 21.60930061 -79.41680145
rradius  -1.821726806e-031 3.024922393e-031 121.0579987
rwrist  7.062250077e-031 7.062250077e-031 -48.92039871
rhand  -7.920061211e-032 -33.2840004 9.303460121
rfingers  -90 -7.125020027 -90
rthumb  -92.93752616 -24.25625642 -97.11982154
rfemur  -17.33340073 18.56459999 -1.596029997
rtibia  -0 0 61.43719864
rfoot  -0 -27.7942009 -13.70499992
rtoes  5.373923086 19.29304026 -105.8922705
lfemur  -24.09729958 -3.076220036 -2.067679882
ltibia  -0 0 65.87960052
lfoot  4.643553202e-032 -18.09460068 -2.239140034
ltoes  -4.250644065 -19.5611806 -102.515957
136
root  14.5658448 35.9617789 2.811222189 -10.20300293 -70.54699707 8.059997559
lowerback  13.5447998 1.350219965 0.425639987
upperback  5.901169777 1.667569995 2.000469923
thorax  -1.436540008 0.721980989 1.603970051
lowerneck  0.8101270199 9.926130295 2.185149908
upperneck  11.79669952 13.35389996 -2.26831007
head  4.066030025 6.552609921 -0.6563640237
lclavicle  0 -9.442270133e-015 7.951389973e-016
lhumerus  -6.640460014 -8.22824955 92.35600281
lradius  2.552504165e-031 -2.439993141e-031 136.2910004
lwrist  -7.062250077e-031 -0 16.16679955
lhand  -1.496451383e-031 -27.76390076 20.11240005
lfingers  90 7.125020027 -90
lthumb  89.89689403 5.08795885 91.16245106
rclavicle  0 -9.442270133e-015 7.951389973e-016
rhumerus  12.77390003 22.30760002 -80.3852005
rradius  -1.851939397e-031 3.006520332e-031 121.6320038
rwrist  0 3.531125038e-031 -48.39160156
rhand  -7.920061211e-032 -33.2840004 9.303460121
rfingers  -90 -7.125020027 -90
rthumb  -92.93752616 -24.25625642 -97.11982154
rfemur  -17.69190025 18.6644001 -1.550869942
rtibia  -0 0 62.03010178
rfoot  -0 -28.27029991 -12.16829967
rtoes  5.373923086 19.29304026 -105.8922705
lfemur  -23.89220047 -3.817630053 -1.67592001
ltibia  -0 0 65.55169678
lfoot  4.656599324e-032 -18.57959938 -2.777329922
ltoes  -4.250644065 -19.5611806 -102.515957
137
root  14.54144425 35.93244478 2.774333391 -10.19900513 -70.17299652 8.085006714
lowerback  13.54819965 1.33762002 0.249357
upperback  5.990560055 1.621690035 1.805879951
thorax  -1.343160033 0.6979200244 1.508119941
lowerneck  0.574409008 9.898400307 2.2011199
upperneck  11.36950016 13.32699966 -2.398220062
head  3.968610048 6.541560173 -0.7006520033
lclavicle  0 -9.442270133e-015 7.951389973e-016
lhumerus  -7.585299969 -8.020870209 93.16799927
lradius  2.563549951e-031 -2.428385407e-031 136.5509949
lwrist  -7.062250077e-031 1.765562519e-031 16.52400017
lhand  -1.496451383e-031 -27.76390076 20.11240005
lfingers  90 7.125020027 -90
lthumb  89.89689403 5.08795885 91.16245106
rclavicle  0 -9.442270133e-015 7.951389973e-016
rhumerus  11.81989956 22.79700089 -81.24780273
rradius  -1.878940288e-031 2.989720293e-031 122.1480026
rwrist  0 7.062250077e-031 -48.11100006
rhand  -7.920061211e-032 -33.2840004 9.303460121
rfingers  -90 -7.125020027 -90
rthumb  -92.93752616 -24.25625642 -97.11982154
rfemur  -18.03879929 18.42620087 -1.775709987
rtibia  -0 0 62.78030014
rfoot  -0 -27.79820061 -11.16139984
rtoes  5.373923086 19.29304026 -105.8922705
lfemur  -23.82799911 -4.703909874 -1.545009971
ltibia  -0 0 65.14019775
lfoot  4.659859887e-032 -18.69849968 -3.504070044
ltoes  -4.250644065 -19.5611806 -102.515957
138
root  14.49571144 35.96311254 2.717533262 -10.43600464 -69.31099701 8.429000854
lowerback  13.37730026 1.331920028 -0.2248149961
upperback  6.083889961 1.55230999 1.635879993
thorax  -1.160369992 0.6580049992 1.612169981
lowerneck  0.5653700233 9.721590042 2.263430119
upperneck  10.85709953 13.10130024 -2.584990025
head  3.801310062 6.435100079 -0.7936159968
lclavicle  0 -9.442270133e-015 7.951389973e-016
lhumerus  -8.267840385 -8.0479002 93.87490082
lradius  2.568884346e-031 -2.422741682e-031 136.677002
lwrist  -7.062250077e-031 -8.827812596e-032 17.1053009
lhand  -1.496451383e-031 -27.76390076 20.11240005
lfingers  90 7.125020027 -90
lthumb  89.89689403 5.08795885 91.16245106
rclavicle  0 -9.442270133e-015 7.951389973e-016
rhumerus  10.88029957 23.00740051 -81.98490143
rradius  -1.901791894e-031 2.975236399e-031 122.586998
rwrist  7.062250077e-031 5.296687558e-031 -48.04550171
rhand  -7.920061211e-032 -33.2840004 9.303460121
rfingers  -90 -7.125020027 -90
rthumb  -92.93752616 -24.25625642 -97.11982154
rfemur  -18.25709915 17.80529976 -2.116509914
rtibia  -0 0 63.59659958
rfoot  -0 -26.63540077 -10.79920006
rtoes  5.373923086 19.29304026 -105.8922705
lfemur  -23.98500061 -5.70675993 -1.655629992
ltibia  -0 0 64.645401
lfoot  4.656943682e-032 -18.59219933 -3.92118001
ltoes  -4.250644065 -19.5611806 -102.515957
